HIERARCHY
ROOT Hips
{
	OFFSET 0.000000 0.000000 0.000000
	CHANNELS 6 Xposition Yposition Zposition Xrotation Yrotation Zrotation
	JOINT LeftUpLeg_virtual
	{
		OFFSET 0.000000 0.000000 0.000000
		CHANNELS 3 Xrotation Yrotation Zrotation
		JOINT LeftUpLeg
		{
			OFFSET 15.427100 -6.655098 0.678600
			CHANNELS 3 Xrotation Yrotation Zrotation
			JOINT LeftLeg
			{
				OFFSET 4.081073 -39.591068 13.024000
				CHANNELS 3 Xrotation Yrotation Zrotation
				JOINT LeftFoot
				{
					OFFSET -4.081074 -37.707932 -15.979700
					CHANNELS 3 Xrotation Yrotation Zrotation
					JOINT LeftToeBase
					{
						OFFSET 5.346399 -15.068900 20.645000
						CHANNELS 3 Xrotation Yrotation Zrotation
						JOINT LeftToe_End
						{
							OFFSET 2.754700 0.931300 11.300900
							CHANNELS 3 Xrotation Yrotation Zrotation
							End Site
							{
								OFFSET 0 0 0
							}
						}
					}
				}
			}
		}
	}
	JOINT RightUpLeg_virtual
	{
		OFFSET 0.000000 0.000000 0.000000
		CHANNELS 3 Xrotation Yrotation Zrotation
		JOINT RightUpLeg
		{
			OFFSET -15.569500 -6.655098 0.678600
			CHANNELS 3 Xrotation Yrotation Zrotation
			JOINT RightLeg
			{
				OFFSET -4.081825 -39.591045 13.023800
				CHANNELS 3 Xrotation Yrotation Zrotation
				JOINT RightFoot
				{
					OFFSET 4.081824 -37.707954 -15.979600
					CHANNELS 3 Xrotation Yrotation Zrotation
					JOINT RightToeBase
					{
						OFFSET -5.346400 -15.068900 20.645000
						CHANNELS 3 Xrotation Yrotation Zrotation
						JOINT RightToe_End
						{
							OFFSET -2.754700 0.931300 11.300900
							CHANNELS 3 Xrotation Yrotation Zrotation
							End Site
							{
								OFFSET 0 0 0
							}
						}
					}
				}
			}
		}
	}
	JOINT Spine_virtual
	{
		OFFSET 0.000000 0.000000 0.000000
		CHANNELS 3 Xrotation Yrotation Zrotation
		JOINT Spine
		{
			OFFSET -0.279200 12.230698 -2.892100
			CHANNELS 3 Xrotation Yrotation Zrotation
			JOINT Spine1
			{
				OFFSET -0.232667 10.192268 -1.242267
				CHANNELS 3 Xrotation Yrotation Zrotation
				JOINT Spine1_split
				{
					OFFSET -0.232667 10.192268 -1.242267
					CHANNELS 3 Xrotation Yrotation Zrotation
					JOINT Spine2
					{
						OFFSET -0.232667 10.192268 -1.242267
						CHANNELS 3 Xrotation Yrotation Zrotation
						JOINT Neck_virtual
						{
							OFFSET 0.000000 0.000000 0.000000
							CHANNELS 3 Xrotation Yrotation Zrotation
							JOINT Neck
							{
								OFFSET -0.418800 17.814194 8.416900
								CHANNELS 3 Xrotation Yrotation Zrotation
								JOINT Head
								{
									OFFSET 0.000000 7.031097 3.806800
									CHANNELS 3 Xrotation Yrotation Zrotation
									JOINT HeadTop_End
									{
										OFFSET 0.000000 24.646606 12.978600
										CHANNELS 3 Xrotation Yrotation Zrotation
										End Site
										{
											OFFSET 0 0 0
										}
									}
								}
							}
						}
						JOINT LeftShoulder_virtual
						{
							OFFSET 0.000000 0.000000 0.000000
							CHANNELS 3 Xrotation Yrotation Zrotation
							JOINT LeftShoulder
							{
								OFFSET 8.476499 7.247704 -3.868750
								CHANNELS 3 Xrotation Yrotation Zrotation
								JOINT LeftShoulder_split
								{
									OFFSET 8.476499 7.247704 -3.868750
									CHANNELS 3 Xrotation Yrotation Zrotation
									JOINT LeftArm
									{
										OFFSET 9.308998 -2.777710 0.208600
										CHANNELS 3 Xrotation Yrotation Zrotation
										JOINT LeftForeArm
										{
											OFFSET 29.972298 0.000000 0.000000
											CHANNELS 3 Xrotation Yrotation Zrotation
											JOINT LeftHand
											{
												OFFSET 26.026505 0.000000 0.000000
												CHANNELS 3 Xrotation Yrotation Zrotation
												End Site
												{
													OFFSET 0 0 0
												}
											}
										}
									}
								}
							}
						}
						JOINT RightShoulder_virtual
						{
							OFFSET 0.000000 0.000000 0.000000
							CHANNELS 3 Xrotation Yrotation Zrotation
							JOINT RightShoulder
							{
								OFFSET -7.570500 7.247704 -3.868750
								CHANNELS 3 Xrotation Yrotation Zrotation
								JOINT RightShoulder_split
								{
									OFFSET -7.570500 7.247704 -3.868750
									CHANNELS 3 Xrotation Yrotation Zrotation
									JOINT RightArm
									{
										OFFSET -9.308998 -2.777710 0.208500
										CHANNELS 3 Xrotation Yrotation Zrotation
										JOINT RightForeArm
										{
											OFFSET -29.972300 0.000000 0.000000
											CHANNELS 3 Xrotation Yrotation Zrotation
											JOINT RightHand
											{
												OFFSET -26.026505 0.000000 0.000000
												CHANNELS 3 Xrotation Yrotation Zrotation
												End Site
												{
													OFFSET 0 0 0
												}
											}
										}
									}
								}
							}
						}
					}
				}
			}
		}
	}
}
MOTION
Frames: 8
Frame Time: 0.03333333
0.150514 74.519569 -4.783495 0.000000 0.000000 0.000000 8.348846 -0.387050 -2.058782 15.615797 6.590035 11.987330 30.444960 -3.995436 11.883159 -21.619857 -0.983745 -9.590316 -25.442977 -0.625107 -4.250133 0.000000 0.000000 0.000000 9.798019 2.711225 -2.682673 -63.385173 0.502088 -3.311812 62.312062 -6.761069 -0.559628 0.629043 2.736632 -9.298113 -1.735975 0.928118 -0.388897 0.000000 0.000000 0.000000 8.546286 -0.207433 -2.286660 1.229532 -4.008949 2.868417 1.782146 -2.652556 2.554903 0.789726 -1.780704 -0.059366 0.000000 0.000000 0.000000 2.827815 -2.597252 2.705797 -3.710714 1.285221 -1.416063 -17.074141 -5.588005 7.531732 0.000000 0.000000 0.000000 3.243931 -2.802495 1.903103 -1.259628 2.626923 -3.314247 -2.867025 2.936070 -2.405660 -14.420852 5.512349 -58.251050 -178.957745 -73.650346 -177.256345 0.000000 0.000000 0.000000 4.506248 -2.189117 2.672629 0.910460 -8.543778 16.513748 -3.111767 4.497172 1.584242 -23.028806 8.030570 53.835841 -171.187067 56.613000 171.511173 0.000000 0.000000 0.000000 
-0.708663 76.373558 -4.836559 0.000000 0.000000 0.000000 8.529568 0.132790 -1.928372 13.876392 5.444477 11.412485 31.950648 -2.987060 11.652311 -14.833999 -0.679885 -9.863462 -23.061055 0.135976 -5.791223 0.000000 0.000000 0.000000 9.493987 2.230380 -2.580927 -63.177433 -0.142392 -4.802319 61.845792 -6.231946 0.021097 1.520148 3.045346 -9.045426 -1.292312 1.027535 -0.207039 0.000000 0.000000 0.000000 8.682909 0.116498 -2.290642 1.226282 -3.838934 3.208699 1.848707 -2.618086 2.345358 0.416343 -0.730298 -0.723103 0.000000 0.000000 0.000000 2.825136 -2.517042 2.421532 -3.662388 1.416693 -1.767046 -16.293777 -5.499143 7.717637 0.000000 0.000000 0.000000 3.426375 -2.738414 1.768046 -1.156511 1.480297 -2.235163 -2.861275 1.651155 -1.331108 -18.766612 3.998479 -57.882274 -178.252610 -73.980757 -176.523575 0.000000 0.000000 0.000000 4.739999 -2.088553 2.423861 0.843834 -7.952365 15.984268 -4.431946 5.115929 0.506489 -27.166394 9.662919 53.575461 -172.565180 54.968167 172.570877 0.000000 0.000000 0.000000 
-1.166254 80.019089 -4.610867 0.000000 0.000000 0.000000 8.226557 1.420285 -2.177393 9.153622 5.435778 11.092355 34.590636 -1.176891 10.194925 -3.247875 -0.397577 -7.795928 -14.417319 0.331576 -7.267063 0.000000 0.000000 0.000000 8.941150 1.817312 -2.729442 -60.672932 -0.171950 -5.689095 56.858101 -5.063441 0.211454 4.259300 3.359586 -8.282375 -1.950304 0.992253 0.093257 0.000000 0.000000 0.000000 8.540504 0.682632 -2.159302 1.898932 -3.078024 3.755596 1.925293 -2.400893 1.795883 0.330314 0.361233 -0.895519 0.000000 0.000000 0.000000 2.747429 -2.250160 1.749439 -3.331383 1.498149 -2.169158 -14.707918 -5.708377 8.066365 0.000000 0.000000 0.000000 3.591585 -2.439159 1.382093 -0.974796 -0.535353 -1.046405 -2.270432 1.072450 -0.826122 -25.802202 0.343173 -56.834250 -176.539886 -76.127294 -174.937455 0.000000 0.000000 0.000000 4.875874 -1.856412 1.844121 0.886519 -7.279769 14.658949 -4.637021 4.163474 0.175113 -35.085975 12.870862 53.364558 -172.923246 56.054953 172.829481 0.000000 0.000000 0.000000 
-0.981853 84.584801 -4.091579 0.000000 0.000000 0.000000 7.568777 2.713366 -2.712726 2.493499 5.955897 10.828473 38.670936 0.993252 8.379861 9.446633 0.454272 -4.422982 -2.917469 -0.080162 -8.390501 0.000000 0.000000 0.000000 8.104028 1.925355 -3.113943 -55.584124 0.183549 -5.648944 48.527169 -3.741451 0.501915 8.394878 3.537580 -7.372903 -4.767580 0.787447 0.420229 0.000000 0.000000 0.000000 7.976712 1.434455 -1.901305 3.088671 -1.977465 4.258929 2.112790 -2.060892 1.146644 0.221672 1.233952 -0.439090 0.000000 0.000000 0.000000 2.740986 -1.832987 1.023461 -2.789575 1.581534 -2.597288 -12.786210 -6.088606 8.522359 0.000000 0.000000 0.000000 3.765154 -1.981692 0.980041 -0.722089 -3.090798 0.185509 -1.771803 1.410853 -0.880889 -34.485608 -4.706455 -56.137977 -173.243814 -80.234690 -171.926298 0.000000 0.000000 0.000000 4.954084 -1.542322 1.178857 0.939384 -6.743795 12.521279 -4.007178 2.293014 0.099194 -45.080488 16.577923 53.921769 -172.440707 59.834902 172.532163 0.000000 0.000000 0.000000 
-0.639896 89.212440 -2.954502 0.000000 0.000000 0.000000 6.450603 3.685805 -3.081805 -5.362002 6.439058 10.157271 44.634603 3.075643 6.867329 18.884285 1.144179 -0.897413 5.860589 -0.638218 -8.311031 0.000000 0.000000 0.000000 6.851640 2.737537 -3.495306 -48.702493 0.385434 -4.906996 38.859723 -2.683608 1.139965 12.870118 3.753380 -6.178963 -9.560130 0.428950 0.604679 0.000000 0.000000 0.000000 6.982059 2.451019 -1.628567 4.662394 -0.865227 4.436712 2.491386 -1.678664 0.659210 0.451737 1.552761 0.191338 0.000000 0.000000 0.000000 2.917442 -1.368129 0.539466 -2.077946 1.642330 -3.007089 -10.871184 -6.493509 9.039005 0.000000 0.000000 0.000000 4.028534 -1.477073 0.802204 -0.459750 -5.658936 1.675855 -1.690900 2.015981 -1.358960 -44.280383 -10.257138 -56.474828 -162.622569 -85.728730 -161.623490 0.000000 0.000000 0.000000 4.995531 -1.234754 0.722190 0.928414 -6.439810 9.392179 -3.148858 0.621232 -0.207367 -55.747000 19.587176 55.438552 -170.927765 66.126108 171.457064 0.000000 0.000000 0.000000 
-0.468447 92.890190 -1.269596 0.000000 0.000000 0.000000 4.704210 4.507892 -3.004652 -13.507234 6.488328 8.403890 53.866225 4.967842 6.211525 23.379908 0.702990 2.438527 9.202590 -1.028134 -6.770230 0.000000 0.000000 0.000000 5.051442 3.853664 -3.627297 -41.334372 0.158493 -3.677410 30.170018 -1.975068 2.127885 16.035701 4.214500 -4.644316 -14.557893 -0.058592 0.629190 0.000000 0.000000 0.000000 5.358175 3.496060 -1.394968 6.461461 -0.069704 4.077307 3.038953 -1.348342 0.507028 0.841632 1.714511 0.610085 0.000000 0.000000 0.000000 3.354751 -0.974885 0.480130 -1.237182 1.661968 -3.350015 -9.108510 -6.729753 9.612016 0.000000 0.000000 0.000000 4.370437 -1.030101 0.993362 -0.235594 -7.653693 3.680389 -1.765244 2.502247 -1.772690 -54.395456 -14.727838 -58.035059 -30.300468 -87.914841 -29.604823 0.000000 0.000000 0.000000 5.113634 -1.019621 0.638923 0.841721 -6.422322 5.113196 -2.717662 -0.685909 -0.895004 -65.684133 21.200610 57.799649 -167.780332 74.301031 168.988183 0.000000 0.000000 0.000000 
-0.463335 95.040070 0.492899 0.000000 0.000000 0.000000 2.591194 5.134783 -2.468858 -21.732342 5.848935 5.009398 66.881636 6.834240 6.392890 23.985507 -0.547715 5.139619 9.255810 -1.241268 -4.678829 0.000000 0.000000 0.000000 2.831662 4.903933 -3.167544 -34.742577 -0.500382 -2.348493 24.193345 -1.424798 3.143183 16.489654 5.130787 -3.024980 -17.845631 -0.538749 0.411947 0.000000 0.000000 0.000000 3.386208 4.344282 -1.192702 8.304493 0.272928 3.227524 3.683149 -1.124425 0.703187 0.886230 1.968953 0.584577 0.000000 0.000000 0.000000 3.924047 -0.710138 0.849440 -0.265159 1.593051 -3.592282 -7.473123 -6.781632 10.231496 0.000000 0.000000 0.000000 4.809154 -0.726535 1.511431 0.054278 -8.693228 6.280087 -1.926830 2.625947 -1.739264 -64.064354 -17.057551 -60.219900 -4.952309 -82.939943 -4.490480 0.000000 0.000000 0.000000 5.278981 -0.931963 0.879173 0.661255 -6.555291 -0.172767 -2.691441 -1.510344 -1.927093 -74.695318 21.006568 60.575459 -158.264390 83.240711 160.144672 0.000000 0.000000 0.000000 
-0.795382 95.254280 2.028151 0.000000 0.000000 0.000000 0.209359 5.361757 -1.587310 -31.143774 5.166585 0.955605 81.395679 9.042986 6.610384 23.352393 -1.368168 6.774664 8.385794 -1.174135 -2.682718 0.000000 0.000000 0.000000 0.386962 5.204591 -2.244257 -29.977273 -1.634862 -1.102951 21.749317 -0.960165 3.941364 13.670106 6.249554 -1.556056 -18.203822 -0.850270 0.074616 0.000000 0.000000 0.000000 1.132291 4.912711 -1.034375 10.175179 0.159177 2.064094 4.271982 -1.015416 1.108935 0.727392 2.159253 0.123787 0.000000 0.000000 0.000000 4.378776 -0.613180 1.423546 0.946845 1.432190 -3.641805 -5.883052 -6.602731 10.879641 0.000000 0.000000 0.000000 5.209468 -0.604316 2.133288 0.382307 -8.777486 9.481926 -1.967121 2.473137 -1.114637 -72.379610 -17.138676 -62.230584 0.019032 -79.512677 0.288128 0.000000 0.000000 0.000000 5.458611 -0.942196 1.288519 0.415437 -6.697035 -6.210116 -2.986837 -1.599718 -2.410864 -82.341298 19.027807 63.306517 -39.120387 87.653566 41.477741 0.000000 0.000000 0.000000 
